<svg width="1194" height="10" viewBox="0 0 1194 10" fill="none" xmlns="http://www.w3.org/2000/svg">
<path d="M20.6602 9.17578H0.867188V0.984375H20.6602V9.17578ZM48.5742 9.17578H28.7812V0.984375H48.5742V9.17578ZM76.4883 9.17578H56.6953V0.984375H76.4883V9.17578ZM104.402 9.17578H84.6094V0.984375H104.402V9.17578ZM132.316 9.17578H112.523V0.984375H132.316V9.17578ZM160.23 9.17578H140.438V0.984375H160.23V9.17578ZM188.145 9.17578H168.352V0.984375H188.145V9.17578ZM216.059 9.17578H196.266V0.984375H216.059V9.17578ZM243.973 9.17578H224.18V0.984375H243.973V9.17578ZM271.887 9.17578H252.094V0.984375H271.887V9.17578ZM299.801 9.17578H280.008V0.984375H299.801V9.17578ZM327.715 9.17578H307.922V0.984375H327.715V9.17578ZM355.629 9.17578H335.836V0.984375H355.629V9.17578ZM383.543 9.17578H363.75V0.984375H383.543V9.17578ZM411.457 9.17578H391.664V0.984375H411.457V9.17578ZM439.371 9.17578H419.578V0.984375H439.371V9.17578ZM467.285 9.17578H447.492V0.984375H467.285V9.17578ZM495.199 9.17578H475.406V0.984375H495.199V9.17578ZM523.113 9.17578H503.32V0.984375H523.113V9.17578ZM551.027 9.17578H531.234V0.984375H551.027V9.17578ZM578.941 9.17578H559.148V0.984375H578.941V9.17578ZM606.855 9.17578H587.062V0.984375H606.855V9.17578ZM634.77 9.17578H614.977V0.984375H634.77V9.17578ZM662.684 9.17578H642.891V0.984375H662.684V9.17578ZM690.598 9.17578H670.805V0.984375H690.598V9.17578ZM718.512 9.17578H698.719V0.984375H718.512V9.17578ZM746.426 9.17578H726.633V0.984375H746.426V9.17578ZM774.34 9.17578H754.547V0.984375H774.34V9.17578ZM802.254 9.17578H782.461V0.984375H802.254V9.17578ZM830.168 9.17578H810.375V0.984375H830.168V9.17578ZM858.082 9.17578H838.289V0.984375H858.082V9.17578ZM885.996 9.17578H866.203V0.984375H885.996V9.17578ZM913.91 9.17578H894.117V0.984375H913.91V9.17578ZM941.824 9.17578H922.031V0.984375H941.824V9.17578ZM969.738 9.17578H949.945V0.984375H969.738V9.17578ZM997.652 9.17578H977.859V0.984375H997.652V9.17578ZM1025.57 9.17578H1005.77V0.984375H1025.57V9.17578ZM1053.48 9.17578H1033.69V0.984375H1053.48V9.17578ZM1081.39 9.17578H1061.6V0.984375H1081.39V9.17578ZM1109.31 9.17578H1089.52V0.984375H1109.31V9.17578ZM1137.22 9.17578H1117.43V0.984375H1137.22V9.17578ZM1165.14 9.17578H1145.34V0.984375H1165.14V9.17578ZM1193.05 9.17578H1173.26V0.984375H1193.05V9.17578Z" fill="#283593"/>
</svg>
