<svg xmlns="http://www.w3.org/2000/svg" xmlns:xlink="http://www.w3.org/1999/xlink" width="194.9" height="100.522" viewBox="0 0 194.9 100.522"><defs><style>.a,.e{fill:none;}.a{stroke:#1d4fb2;stroke-width:4px;stroke-dasharray:8;}.b,.c{fill:#283593;}.b{font-size:28px;font-family:Roboto-Regular, Roboto;}.d{stroke:none;}.f{filter:url(#a);}</style><filter id="a" x="0" y="0" width="183.959" height="87.751" filterUnits="userSpaceOnUse"><feOffset dy="3" input="SourceAlpha"/><feGaussianBlur stdDeviation="3" result="b"/><feFlood flood-opacity="0.161"/><feComposite operator="in" in2="b"/><feComposite in="SourceGraphic"/></filter></defs><g transform="translate(9 6)"><g class="f" transform="matrix(1, 0, 0, 1, -9, -6)"><g class="a" transform="translate(9 6)"><rect class="d" width="165.959" height="69.751" rx="16"/><rect class="e" x="2" y="2" width="161.959" height="65.751" rx="14"/></g></g><text class="b" transform="translate(45.699 43.431)"><tspan x="0" y="0">Login</tspan></text><g transform="translate(145.933 54.55)"><path class="c" d="M320.093,1440.531l31.07,12.016-7.47,5.954,9.96,11.475-3.572,5.413-12.233-11.259-5.954,8.336Z" transform="translate(-316.756 -1437.74)"/><path class="c" d="M113.654,105.952l-10.6-10.6,7.565-4.37a1.782,1.782,0,0,0-.231-3.2L76.65,74.324a1.782,1.782,0,0,0-2.315,2.315l13.454,33.738a1.782,1.782,0,0,0,3.2.231l4.369-7.565,10.6,10.6a1.781,1.781,0,0,0,2.52,0l5.174-5.175A1.782,1.782,0,0,0,113.654,105.952Zm-6.434,3.915L96.235,98.882a1.782,1.782,0,0,0-2.8.369l-3.693,6.394L79.181,79.171,105.652,89.73l-6.395,3.694a1.782,1.782,0,0,0-.369,2.8l10.985,10.986Z" transform="translate(-74.208 -74.197)"/></g></g></svg>