<svg xmlns="http://www.w3.org/2000/svg" width="152.658" height="132.029" viewBox="0 0 152.658 132.029"><defs><style>.a,.c{fill:#fff;stroke-linejoin:round;}.a,.b,.c,.d{stroke:#707070;stroke-width:2px;}.a,.b{stroke-dasharray:7 2;}.b,.d{fill:none;}.e{fill:#283593;}</style></defs><g transform="translate(-836.976 -1365.277)"><g transform="translate(837.976 1392.72)"><path class="a" d="M79.088,103.586H0V24.5c0-.469.013-.943.04-1.409L29.312,0H79.088V103.585Z" transform="translate(0 0)"/><line class="b" x2="61.386" transform="translate(8.851 27.238)"/><line class="b" x2="61.386" transform="translate(8.851 39.515)"/><line class="b" x2="61.386" transform="translate(8.851 51.792)"/><line class="b" x2="61.386" transform="translate(8.851 64.069)"/><line class="b" x2="61.386" transform="translate(8.851 76.347)"/><line class="b" x2="61.386" transform="translate(8.851 88.624)"/></g><g transform="translate(890.863 1366.277)"><path class="c" d="M79.088,103.586H0V24.5c0-.469.013-.943.04-1.409L29.312,0H79.088V103.585Z" transform="translate(0 0)"/><line class="d" x2="61.386" transform="translate(8.851 27.238)"/><line class="d" x2="61.386" transform="translate(8.851 39.515)"/><line class="d" x2="61.386" transform="translate(8.851 51.792)"/><line class="d" x2="61.386" transform="translate(8.851 64.069)"/><line class="d" x2="61.386" transform="translate(8.851 76.347)"/><line class="d" x2="61.386" transform="translate(8.851 88.624)"/></g><g transform="translate(949.666 1452.556)"><path class="e" d="M320.093,1440.531l31.07,12.016-7.47,5.954,9.96,11.475-3.572,5.413-12.233-11.259-5.954,8.336Z" transform="translate(-316.756 -1437.74)"/><path class="e" d="M113.654,105.952l-10.6-10.6,7.565-4.37a1.782,1.782,0,0,0-.231-3.2L76.65,74.324a1.782,1.782,0,0,0-2.315,2.315l13.454,33.738a1.782,1.782,0,0,0,3.2.231l4.369-7.565,10.6,10.6a1.781,1.781,0,0,0,2.52,0l5.174-5.175A1.782,1.782,0,0,0,113.654,105.952Zm-6.434,3.915L96.235,98.882a1.782,1.782,0,0,0-2.8.369l-3.693,6.394L79.181,79.171,105.652,89.73l-6.395,3.694a1.782,1.782,0,0,0-.369,2.8l10.985,10.986Z" transform="translate(-74.208 -74.197)"/></g></g></svg>