<svg xmlns="http://www.w3.org/2000/svg" xmlns:xlink="http://www.w3.org/1999/xlink" width="267.553" height="218.335" viewBox="0 0 267.553 218.335"><defs><style>.a{fill:#fff;}.b{fill:#efefef;}.c{fill:#157bfe;}.d,.f{fill:#95ccfc;}.d{opacity:0.81;}.e{fill:#1d1bf7;}.g{filter:url(#e);}.h{filter:url(#c);}.i{filter:url(#a);}</style><filter id="a" x="0" y="0" width="162.155" height="113.346" filterUnits="userSpaceOnUse"><feOffset dy="-5" input="SourceAlpha"/><feGaussianBlur stdDeviation="9.5" result="b"/><feFlood flood-opacity="0.031"/><feComposite operator="in" in2="b"/><feComposite in="SourceGraphic"/></filter><filter id="c" x="105.398" y="15.291" width="162.155" height="113.346" filterUnits="userSpaceOnUse"><feOffset dy="-5" input="SourceAlpha"/><feGaussianBlur stdDeviation="9.5" result="d"/><feFlood flood-opacity="0.031"/><feComposite operator="in" in2="d"/><feComposite in="SourceGraphic"/></filter><filter id="e" x="44.234" y="61.71" width="162.155" height="113.346" filterUnits="userSpaceOnUse"><feOffset dy="-5" input="SourceAlpha"/><feGaussianBlur stdDeviation="9.5" result="f"/><feFlood flood-opacity="0.031"/><feComposite operator="in" in2="f"/><feComposite in="SourceGraphic"/></filter></defs><g transform="translate(28.5 33.5)"><g transform="translate(0 0)"><g transform="translate(0 43.067)"><ellipse class="a" cx="52.577" cy="28.173" rx="52.577" ry="28.173" transform="translate(0 19.509)"/><path class="b" d="M313.53,296.717c0,15.559-23.54,28.173-52.577,28.173s-52.578-12.614-52.578-28.173v6.172h.042c-.025.358-.042.715-.042,1.075,0,15.56,23.54,28.173,52.578,28.173s52.577-12.613,52.577-28.173c0-.36-.016-.718-.041-1.075h.041Z" transform="translate(-208.375 -252.079)"/><ellipse class="c" cx="44.496" cy="23.843" rx="44.496" ry="23.843" transform="translate(8.081 23.839)"/><path class="d" d="M208.375,282.142V300.89h.328c2.919,14.079,25.2,25.028,52.25,25.028s49.33-10.949,52.25-25.028h.327V282.142Z" transform="translate(-208.375 -250.063)"/><path class="b" d="M313.53,277.114c0,15.56-23.565,23.064-52.577,23.825-29.028.761-52.578-8.265-52.578-23.825v1.824h.042c-.025.358-.042.715-.042,1.075,0,15.56,23.54,28.173,52.578,28.173s52.577-12.613,52.577-28.173c0-.36-.016-.718-.041-1.075h.041Z" transform="translate(-208.375 -249.368)"/><ellipse class="a" cx="52.577" cy="28.173" rx="52.577" ry="28.173" transform="translate(0)"/><ellipse class="e" cx="44.496" cy="23.843" rx="44.496" ry="23.843" transform="translate(8.081 3.469)"/><ellipse class="e" cx="0.383" cy="1.207" rx="0.383" ry="1.207" transform="translate(96.557 63.889)"/><ellipse class="f" cx="0.383" cy="1.207" rx="0.383" ry="1.207" transform="translate(97.941 62.681)"/><ellipse class="d" cx="0.383" cy="1.207" rx="0.383" ry="1.207" transform="translate(99.174 61.289)"/></g><g transform="translate(0 21.543)"><ellipse class="a" cx="52.577" cy="28.173" rx="52.577" ry="28.173" transform="translate(0 19.509)"/><path class="b" d="M313.53,271.739c0,15.56-23.54,28.173-52.577,28.173s-52.578-12.613-52.578-28.173v6.173h.042c-.025.357-.042.715-.042,1.075,0,15.559,23.54,28.173,52.578,28.173s52.577-12.614,52.577-28.173c0-.36-.016-.719-.041-1.075h.041Z" transform="translate(-208.375 -227.101)"/><ellipse class="c" cx="44.496" cy="23.843" rx="44.496" ry="23.843" transform="translate(8.081 23.839)"/><path class="d" d="M208.375,257.164v18.749h.328c2.919,14.079,25.2,25.028,52.25,25.028s49.33-10.949,52.25-25.028h.327V257.164Z" transform="translate(-208.375 -225.086)"/><path class="b" d="M313.53,252.137c0,15.559-23.565,23.064-52.577,23.824-29.028.761-52.578-8.265-52.578-23.824v1.824h.042c-.025.357-.042.715-.042,1.075,0,15.559,23.54,28.173,52.578,28.173S313.53,270.6,313.53,255.037c0-.36-.016-.719-.041-1.075h.041Z" transform="translate(-208.375 -224.391)"/><ellipse class="a" cx="52.577" cy="28.173" rx="52.577" ry="28.173" transform="translate(0)"/><ellipse class="e" cx="44.496" cy="23.843" rx="44.496" ry="23.843" transform="translate(8.081 3.469)"/><ellipse class="e" cx="0.383" cy="1.207" rx="0.383" ry="1.207" transform="translate(96.557 63.889)"/><ellipse class="e" cx="0.383" cy="1.207" rx="0.383" ry="1.207" transform="translate(97.941 62.681)"/><ellipse class="d" cx="0.383" cy="1.207" rx="0.383" ry="1.207" transform="translate(99.174 61.289)"/></g><ellipse class="a" cx="52.577" cy="28.173" rx="52.577" ry="28.173" transform="translate(0 19.509)"/><path class="b" d="M313.53,246.739c0,15.56-23.54,28.173-52.577,28.173s-52.578-12.613-52.578-28.173v6.173h.042c-.025.357-.042.715-.042,1.075,0,15.559,23.54,28.173,52.578,28.173s52.577-12.614,52.577-28.173c0-.36-.016-.719-.041-1.075h.041Z" transform="translate(-208.375 -202.101)"/><ellipse class="c" cx="44.496" cy="23.843" rx="44.496" ry="23.843" transform="translate(8.081 23.839)"/><path class="d" d="M208.375,232.164v18.749h.328c2.919,14.079,25.2,25.028,52.25,25.028s49.33-10.949,52.25-25.028h.327V232.164Z" transform="translate(-208.375 -200.086)"/><path class="b" d="M313.53,227.137c0,15.559-23.565,23.064-52.577,23.824-29.028.761-52.578-8.265-52.578-23.824v1.824h.042c-.025.357-.042.715-.042,1.075,0,15.559,23.54,28.173,52.578,28.173S313.53,245.6,313.53,230.037c0-.36-.016-.719-.041-1.075h.041Z" transform="translate(-208.375 -199.391)"/><g class="i" transform="matrix(1, 0, 0, 1, -28.5, -33.5)"><ellipse class="a" cx="52.577" cy="28.173" rx="52.577" ry="28.173" transform="translate(28.5 33.5)"/></g><ellipse class="c" cx="44.496" cy="23.843" rx="44.496" ry="23.843" transform="translate(8.081 3.469)"/><ellipse class="e" cx="0.383" cy="1.207" rx="0.383" ry="1.207" transform="translate(96.557 63.889)"/><ellipse class="f" cx="0.383" cy="1.207" rx="0.383" ry="1.207" transform="translate(97.941 62.681)"/><ellipse class="e" cx="0.383" cy="1.207" rx="0.383" ry="1.207" transform="translate(99.174 61.289)"/></g><g transform="translate(105.398 15.291)"><g transform="translate(0 43.067)"><ellipse class="a" cx="52.577" cy="28.173" rx="52.577" ry="28.173" transform="translate(0 19.509)"/><path class="b" d="M313.53,296.717c0,15.559-23.54,28.173-52.577,28.173s-52.578-12.614-52.578-28.173v6.172h.042c-.025.358-.042.715-.042,1.075,0,15.56,23.54,28.173,52.578,28.173s52.577-12.613,52.577-28.173c0-.36-.016-.718-.041-1.075h.041Z" transform="translate(-208.375 -252.079)"/><ellipse class="c" cx="44.496" cy="23.843" rx="44.496" ry="23.843" transform="translate(8.081 23.839)"/><path class="d" d="M208.375,282.142V300.89h.328c2.919,14.079,25.2,25.028,52.25,25.028s49.33-10.949,52.25-25.028h.327V282.142Z" transform="translate(-208.375 -250.063)"/><path class="b" d="M313.53,277.114c0,15.56-23.565,23.064-52.577,23.825-29.028.761-52.578-8.265-52.578-23.825v1.824h.042c-.025.358-.042.715-.042,1.075,0,15.56,23.54,28.173,52.578,28.173s52.577-12.613,52.577-28.173c0-.36-.016-.718-.041-1.075h.041Z" transform="translate(-208.375 -249.368)"/><ellipse class="a" cx="52.577" cy="28.173" rx="52.577" ry="28.173" transform="translate(0)"/><ellipse class="e" cx="44.496" cy="23.843" rx="44.496" ry="23.843" transform="translate(8.081 3.469)"/><ellipse class="e" cx="0.383" cy="1.207" rx="0.383" ry="1.207" transform="translate(96.557 63.889)"/><ellipse class="f" cx="0.383" cy="1.207" rx="0.383" ry="1.207" transform="translate(97.941 62.681)"/><ellipse class="d" cx="0.383" cy="1.207" rx="0.383" ry="1.207" transform="translate(99.174 61.289)"/></g><g transform="translate(0 21.543)"><ellipse class="a" cx="52.577" cy="28.173" rx="52.577" ry="28.173" transform="translate(0 19.509)"/><path class="b" d="M313.53,271.739c0,15.56-23.54,28.173-52.577,28.173s-52.578-12.613-52.578-28.173v6.173h.042c-.025.357-.042.715-.042,1.075,0,15.559,23.54,28.173,52.578,28.173s52.577-12.614,52.577-28.173c0-.36-.016-.719-.041-1.075h.041Z" transform="translate(-208.375 -227.101)"/><ellipse class="c" cx="44.496" cy="23.843" rx="44.496" ry="23.843" transform="translate(8.081 23.839)"/><path class="d" d="M208.375,257.164v18.749h.328c2.919,14.079,25.2,25.028,52.25,25.028s49.33-10.949,52.25-25.028h.327V257.164Z" transform="translate(-208.375 -225.086)"/><path class="b" d="M313.53,252.137c0,15.559-23.565,23.064-52.577,23.824-29.028.761-52.578-8.265-52.578-23.824v1.824h.042c-.025.357-.042.715-.042,1.075,0,15.559,23.54,28.173,52.578,28.173S313.53,270.6,313.53,255.037c0-.36-.016-.719-.041-1.075h.041Z" transform="translate(-208.375 -224.391)"/><ellipse class="a" cx="52.577" cy="28.173" rx="52.577" ry="28.173" transform="translate(0)"/><ellipse class="e" cx="44.496" cy="23.843" rx="44.496" ry="23.843" transform="translate(8.081 3.469)"/><ellipse class="e" cx="0.383" cy="1.207" rx="0.383" ry="1.207" transform="translate(96.557 63.889)"/><ellipse class="e" cx="0.383" cy="1.207" rx="0.383" ry="1.207" transform="translate(97.941 62.681)"/><ellipse class="d" cx="0.383" cy="1.207" rx="0.383" ry="1.207" transform="translate(99.174 61.289)"/></g><g transform="translate(0 0)"><ellipse class="a" cx="52.577" cy="28.173" rx="52.577" ry="28.173" transform="translate(0 19.509)"/><path class="b" d="M313.53,246.739c0,15.56-23.54,28.173-52.577,28.173s-52.578-12.613-52.578-28.173v6.173h.042c-.025.357-.042.715-.042,1.075,0,15.559,23.54,28.173,52.578,28.173s52.577-12.614,52.577-28.173c0-.36-.016-.719-.041-1.075h.041Z" transform="translate(-208.375 -202.101)"/><ellipse class="c" cx="44.496" cy="23.843" rx="44.496" ry="23.843" transform="translate(8.081 23.839)"/><path class="d" d="M208.375,232.164v18.749h.328c2.919,14.079,25.2,25.028,52.25,25.028s49.33-10.949,52.25-25.028h.327V232.164Z" transform="translate(-208.375 -200.086)"/><path class="b" d="M313.53,227.137c0,15.559-23.565,23.064-52.577,23.824-29.028.761-52.578-8.265-52.578-23.824v1.824h.042c-.025.357-.042.715-.042,1.075,0,15.559,23.54,28.173,52.578,28.173S313.53,245.6,313.53,230.037c0-.36-.016-.719-.041-1.075h.041Z" transform="translate(-208.375 -199.391)"/><g class="h" transform="matrix(1, 0, 0, 1, -133.9, -48.79)"><ellipse class="a" cx="52.577" cy="28.173" rx="52.577" ry="28.173" transform="translate(133.9 48.79)"/></g><ellipse class="c" cx="44.496" cy="23.843" rx="44.496" ry="23.843" transform="translate(8.081 3.469)"/><ellipse class="e" cx="0.383" cy="1.207" rx="0.383" ry="1.207" transform="translate(96.557 63.889)"/><ellipse class="f" cx="0.383" cy="1.207" rx="0.383" ry="1.207" transform="translate(97.941 62.681)"/><ellipse class="e" cx="0.383" cy="1.207" rx="0.383" ry="1.207" transform="translate(99.174 61.289)"/></g></g><g transform="translate(44.234 61.71)"><g transform="translate(0 43.067)"><ellipse class="a" cx="52.577" cy="28.173" rx="52.577" ry="28.173" transform="translate(0 19.509)"/><path class="b" d="M313.53,296.717c0,15.559-23.54,28.173-52.577,28.173s-52.578-12.614-52.578-28.173v6.172h.042c-.025.358-.042.715-.042,1.075,0,15.56,23.54,28.173,52.578,28.173s52.577-12.613,52.577-28.173c0-.36-.016-.718-.041-1.075h.041Z" transform="translate(-208.375 -252.079)"/><ellipse class="c" cx="44.496" cy="23.843" rx="44.496" ry="23.843" transform="translate(8.081 23.839)"/><path class="d" d="M208.375,282.142V300.89h.328c2.919,14.079,25.2,25.028,52.25,25.028s49.33-10.949,52.25-25.028h.327V282.142Z" transform="translate(-208.375 -250.063)"/><path class="b" d="M313.53,277.114c0,15.56-23.565,23.064-52.577,23.825-29.028.761-52.578-8.265-52.578-23.825v1.824h.042c-.025.358-.042.715-.042,1.075,0,15.56,23.54,28.173,52.578,28.173s52.577-12.613,52.577-28.173c0-.36-.016-.718-.041-1.075h.041Z" transform="translate(-208.375 -249.368)"/><ellipse class="a" cx="52.577" cy="28.173" rx="52.577" ry="28.173" transform="translate(0)"/><ellipse class="e" cx="44.496" cy="23.843" rx="44.496" ry="23.843" transform="translate(8.081 3.469)"/><ellipse class="e" cx="0.383" cy="1.207" rx="0.383" ry="1.207" transform="translate(96.557 63.889)"/><ellipse class="f" cx="0.383" cy="1.207" rx="0.383" ry="1.207" transform="translate(97.941 62.681)"/><ellipse class="d" cx="0.383" cy="1.207" rx="0.383" ry="1.207" transform="translate(99.174 61.289)"/></g><g transform="translate(0 21.543)"><ellipse class="a" cx="52.577" cy="28.173" rx="52.577" ry="28.173" transform="translate(0 19.509)"/><path class="b" d="M313.53,271.739c0,15.56-23.54,28.173-52.577,28.173s-52.578-12.613-52.578-28.173v6.173h.042c-.025.357-.042.715-.042,1.075,0,15.559,23.54,28.173,52.578,28.173s52.577-12.614,52.577-28.173c0-.36-.016-.719-.041-1.075h.041Z" transform="translate(-208.375 -227.101)"/><ellipse class="c" cx="44.496" cy="23.843" rx="44.496" ry="23.843" transform="translate(8.081 23.839)"/><path class="d" d="M208.375,257.164v18.749h.328c2.919,14.079,25.2,25.028,52.25,25.028s49.33-10.949,52.25-25.028h.327V257.164Z" transform="translate(-208.375 -225.086)"/><path class="b" d="M313.53,252.137c0,15.559-23.565,23.064-52.577,23.824-29.028.761-52.578-8.265-52.578-23.824v1.824h.042c-.025.357-.042.715-.042,1.075,0,15.559,23.54,28.173,52.578,28.173S313.53,270.6,313.53,255.037c0-.36-.016-.719-.041-1.075h.041Z" transform="translate(-208.375 -224.391)"/><ellipse class="a" cx="52.577" cy="28.173" rx="52.577" ry="28.173" transform="translate(0)"/><ellipse class="e" cx="44.496" cy="23.843" rx="44.496" ry="23.843" transform="translate(8.081 3.469)"/><ellipse class="e" cx="0.383" cy="1.207" rx="0.383" ry="1.207" transform="translate(96.557 63.889)"/><ellipse class="e" cx="0.383" cy="1.207" rx="0.383" ry="1.207" transform="translate(97.941 62.681)"/><ellipse class="d" cx="0.383" cy="1.207" rx="0.383" ry="1.207" transform="translate(99.174 61.289)"/></g><g transform="translate(0 0)"><ellipse class="a" cx="52.577" cy="28.173" rx="52.577" ry="28.173" transform="translate(0 19.509)"/><path class="b" d="M313.53,246.739c0,15.56-23.54,28.173-52.577,28.173s-52.578-12.613-52.578-28.173v6.173h.042c-.025.357-.042.715-.042,1.075,0,15.559,23.54,28.173,52.578,28.173s52.577-12.614,52.577-28.173c0-.36-.016-.719-.041-1.075h.041Z" transform="translate(-208.375 -202.101)"/><ellipse class="c" cx="44.496" cy="23.843" rx="44.496" ry="23.843" transform="translate(8.081 23.839)"/><path class="d" d="M208.375,232.164v18.749h.328c2.919,14.079,25.2,25.028,52.25,25.028s49.33-10.949,52.25-25.028h.327V232.164Z" transform="translate(-208.375 -200.086)"/><path class="b" d="M313.53,227.137c0,15.559-23.565,23.064-52.577,23.824-29.028.761-52.578-8.265-52.578-23.824v1.824h.042c-.025.357-.042.715-.042,1.075,0,15.559,23.54,28.173,52.578,28.173S313.53,245.6,313.53,230.037c0-.36-.016-.719-.041-1.075h.041Z" transform="translate(-208.375 -199.391)"/><g class="g" transform="matrix(1, 0, 0, 1, -72.73, -95.21)"><ellipse class="a" cx="52.577" cy="28.173" rx="52.577" ry="28.173" transform="translate(72.73 95.21)"/></g><ellipse class="c" cx="44.496" cy="23.843" rx="44.496" ry="23.843" transform="translate(8.081 3.469)"/><ellipse class="e" cx="0.383" cy="1.207" rx="0.383" ry="1.207" transform="translate(96.557 63.889)"/><ellipse class="f" cx="0.383" cy="1.207" rx="0.383" ry="1.207" transform="translate(97.941 62.681)"/><ellipse class="e" cx="0.383" cy="1.207" rx="0.383" ry="1.207" transform="translate(99.174 61.289)"/></g></g></g></svg>